<?xml version="1.0" encoding="utf-8"?>
<!-- Generator: Adobe Illustrator 19.1.0, SVG Export Plug-In . SVG Version: 6.00 Build 0)  -->
<svg version="1.1" id="Layer_1" xmlns="http://www.w3.org/2000/svg" xmlns:xlink="http://www.w3.org/1999/xlink" x="0px" y="0px"
	 viewBox="0 0 1304.658 427.963" style="enable-background:new 0 0 1304.658 427.963;" xml:space="preserve">
<style type="text/css">
	.st0{fill:#FFFFFF;}
</style>
<g>
	<g>
		<path id="Pushbit_1_" class="st0" d="M431.648,93.907c0,24.134-7.904,42.63-23.713,55.485
			c-15.807,12.858-38.309,19.285-67.499,19.285h-24.028v101.326h-37.78V24.037h66.551c28.873,0,50.505,5.904,64.89,17.704
			C424.455,53.546,431.648,70.933,431.648,93.907z M316.408,136.905h20.076c19.39,0,33.616-3.372,42.681-10.119
			c9.063-6.742,13.595-17.282,13.595-31.614c0-13.279-4.058-23.184-12.172-29.719c-8.116-6.532-20.763-9.8-37.938-9.8h-26.242
			V136.905z M568.048,247.084c-5.164,8.116-11.566,14.49-21.103,19.127c-9.539,4.637-20.42,6.957-32.642,6.957
			c-21.184,0-36.991-5.27-47.424-15.808c-10.433-10.538-15.65-26.502-15.65-47.898V95.169h37.465v107.81
			c0,13.384,2.74,23.421,8.22,30.115c5.48,6.693,14.07,10.037,25.768,10.037c15.595,0,27.055-4.665,34.381-13.989
			c7.324-9.327,10.986-24.949,10.986-46.871V95.169h37.306v174.835h-37.306 M754.72,220.211c0,17.07-6.218,30.166-18.652,39.281
			c-12.436,9.118-30.248,13.675-53.431,13.675c-23.291,0-41.997-3.531-56.116-10.592v-32.089
			c20.55,9.483,39.677,14.227,57.381,14.227c22.867,0,34.304-6.903,34.304-20.708c0-4.427-1.265-8.114-3.794-11.067
			c-2.529-2.948-6.693-6.006-12.49-9.169c-5.797-3.16-13.859-6.742-24.185-10.747c-20.131-7.8-33.75-15.596-40.862-23.396
			c-7.115-7.8-10.671-17.916-10.671-30.352c0-14.963,6.031-26.581,18.1-34.856c12.066-8.272,28.48-12.408,49.242-12.408
			c20.55,0,39.994,4.164,58.331,12.487l-12.015,27.982c-18.867-7.8-34.726-11.698-47.581-11.698
			c-19.602,0-29.402,5.587-29.402,16.756c0,5.48,2.552,10.117,7.667,13.91c5.109,3.794,16.253,9.01,33.433,15.65
			c14.436,5.587,24.921,10.696,31.456,15.333c6.535,4.64,11.384,9.986,14.544,16.043C753.141,204.536,754.72,211.781,754.72,220.211
			z M810.978,118.565c5.058-8.428,12.566-14.963,21.577-19.599s19.523-6.957,31.535-6.957c42.367,0,63.548,21.339,63.548,64.02
			v113.975h-37.306V162.511c0-13.489-2.713-23.551-8.142-30.191c-5.429-6.64-14.043-9.961-25.846-9.961
			c-15.596,0-27.057,4.665-34.381,13.992c-7.324,9.324-10.985,24.949-10.985,46.868v86.785h-37.151V24.037h37.151 M995.434,270.004
			h-37.15V24.037h37.15 M995.434,118.092c11.8-17.39,29.19-26.083,52.164-26.083c21.814,0,38.808,7.904,50.982,23.713
			c12.17,15.806,18.258,37.991,18.258,66.549c0,28.666-6.167,50.979-18.496,66.946c-12.332,15.967-29.458,23.95-51.375,23.95
			c-22.131,0-39.309-7.958-51.533-23.871 M1037.957,122.359c-14.965,0-25.744,4.402-32.327,13.2
			c-6.589,8.801-9.986,23.529-10.196,44.183v2.529c0,21.288,3.369,36.701,10.117,46.237c6.742,9.539,17.755,14.306,33.037,14.306
			c13.172,0,23.158-5.217,29.956-15.65c6.798-10.433,10.196-25.501,10.196-45.21C1078.74,142.227,1065.147,122.359,1037.957,122.359
			z M1176.1,270.004h-37.15V92.009h37.15V270.004z M1273.296,243.132c9.061,0,16.386-1.423,25.45-4.269v27.979
			c-4.11,1.794-7.667,3.293-14.148,4.507c-6.481,1.211-13.2,1.819-20.154,1.819c-35.201,0-52.798-18.547-52.798-55.644v-97.374
			h-23.871v-28.14h25.608V24.037h35.569v67.972h49.793v28.14h-49.793v96.741c0,8.959,2.238,15.571,6.719,19.84
			C1260.15,240.996,1266.026,243.132,1273.296,243.132z M1176.1,24.037h-37.15v37.15h37.15V24.037z"/>
		<path id="Icon_2_" class="st0" d="M222.903,0h-37.15v37.15h37.15V0z M185.752,37.15h-37.15v37.15h37.15V37.15z M148.602,0h-37.15
			v37.15h37.15V0z M148.602,74.301h-37.15v37.15h37.15V74.301z M111.451,111.451h-37.15v37.15h37.15V111.451z M74.301,74.301H37.15
			v37.15h37.15V74.301z M111.451,37.15h-37.15v37.15h37.15V37.15z M74.301,0H37.15v37.15h37.15V0z M222.903,74.301h-37.15v37.15
			h37.15V74.301z M185.752,111.451h-37.15v37.15h37.15V111.451z M222.903,148.602h-37.15v37.15h37.15V148.602z M185.752,185.752
			h-37.15v37.15h37.15V185.752z M148.602,148.602h-37.15v37.15h37.15V148.602z M148.602,222.903h-37.15v37.15h37.15V222.903z
			 M111.451,260.053h-37.15v37.15h37.15V260.053z M74.301,222.903H37.15v37.15h37.15V222.903z M111.451,185.752h-37.15v37.15h37.15
			V185.752z M74.301,148.602H37.15v37.15h37.15V148.602z M222.903,222.903h-37.15v37.15h37.15V222.903z M185.752,260.053h-37.15
			v37.15h37.15V260.053z M37.15,37.15H0v37.15h37.15V37.15z M37.15,111.451H0v37.15h37.15V111.451z M37.15,185.752H0v37.15h37.15
			V185.752z M37.15,260.053H0v37.15h37.15V260.053z"/>
	</g>
	<g>
		<path class="st0" d="M4.586,377.2v28.642H0v-65.737h15.647c8.153,0,14.178,1.506,18.075,4.519
			c3.897,3.013,5.846,7.547,5.846,13.601c0,4.407-1.162,8.124-3.485,11.151c-2.323,3.028-5.853,5.201-10.589,6.52l17.85,29.946
			h-5.485L20.908,377.2H4.586z M4.586,373.243h12.545c5.546,0,9.847-1.237,12.904-3.71c3.057-2.473,4.586-6.122,4.586-10.948
			c0-5.006-1.499-8.648-4.496-10.926c-2.998-2.278-7.884-3.417-14.658-3.417H4.586V373.243z"/>
		<path class="st0" d="M73.336,406.741c-7.104,0-12.643-2.188-16.614-6.565c-3.972-4.376-5.958-10.506-5.958-18.39
			c0-7.793,1.918-14.035,5.755-18.727c3.837-4.691,9.008-7.037,15.513-7.037c5.755,0,10.296,2.008,13.624,6.025
			c3.327,4.017,4.991,9.473,4.991,16.367v3.597H55.44c0.06,6.715,1.625,11.841,4.698,15.378c3.072,3.538,7.471,5.306,13.197,5.306
			c2.788,0,5.238-0.195,7.352-0.585c2.113-0.389,4.789-1.229,8.026-2.518v4.047c-2.758,1.199-5.305,2.016-7.644,2.451
			C78.731,406.523,76.152,406.741,73.336,406.741z M72.032,359.979c-4.707,0-8.483,1.551-11.331,4.654
			c-2.848,3.103-4.512,7.576-4.991,13.421h30.216c0-5.665-1.229-10.094-3.687-13.286C79.78,361.575,76.378,359.979,72.032,359.979z"
			/>
		<path class="st0" d="M133.811,405.841l-1.124-7.734h-0.36c-2.458,3.148-4.984,5.373-7.577,6.677
			c-2.593,1.304-5.658,1.956-9.195,1.956c-4.797,0-8.529-1.229-11.196-3.687c-2.668-2.458-4.001-5.86-4.001-10.207
			c0-4.766,1.985-8.468,5.957-11.106c3.972-2.637,9.72-4.031,17.244-4.181l9.307-0.27v-3.237c0-4.646-0.944-8.153-2.833-10.522
			c-1.888-2.367-4.931-3.552-9.127-3.552c-4.527,0-9.218,1.259-14.074,3.777l-1.664-3.867c5.365-2.518,10.671-3.777,15.917-3.777
			c5.365,0,9.375,1.394,12.028,4.181c2.653,2.788,3.979,7.135,3.979,13.039v32.509H133.811z M115.826,402.694
			c5.216,0,9.33-1.491,12.342-4.474c3.012-2.982,4.519-7.127,4.519-12.432v-4.811l-8.543,0.36
			c-6.865,0.33-11.758,1.401-14.681,3.215c-2.923,1.814-4.384,4.639-4.384,8.475c0,3.057,0.936,5.434,2.81,7.127
			C109.763,401.847,112.409,402.694,115.826,402.694z"/>
		<path class="st0" d="M157.372,405.841h-4.451v-69.963h4.451V405.841z"/>
		<path class="st0" d="M169.692,382.82v-3.687h21.358v3.687H169.692z"/>
		<path class="st0" d="M216.274,402.784c2.817,0,5.276-0.24,7.374-0.719v3.597c-2.158,0.72-4.647,1.079-7.464,1.079
			c-4.316,0-7.502-1.154-9.555-3.462c-2.054-2.308-3.08-5.935-3.08-10.881v-31.564h-7.239v-2.608l7.239-2.023l2.248-11.061h2.293
			v11.825h14.343v3.867h-14.343v30.935c0,3.747,0.659,6.52,1.979,8.318C211.388,401.885,213.456,402.784,216.274,402.784z"/>
		<path class="st0" d="M233.585,343.387c0-2.877,0.944-4.316,2.833-4.316c0.929,0,1.656,0.375,2.18,1.124
			c0.524,0.75,0.787,1.814,0.787,3.192c0,1.349-0.263,2.414-0.787,3.192c-0.525,0.78-1.252,1.169-2.18,1.169
			C234.529,347.748,233.585,346.295,233.585,343.387z M238.665,405.841h-4.451v-48.875h4.451V405.841z"/>
		<path class="st0" d="M316.093,405.841v-32.059c0-4.766-0.929-8.243-2.788-10.432c-1.859-2.187-4.706-3.282-8.543-3.282
			c-5.006,0-8.708,1.379-11.106,4.137c-2.399,2.758-3.597,7.089-3.597,12.994v28.642h-4.541v-33.408
			c0-8.243-3.777-12.365-11.331-12.365c-5.126,0-8.858,1.492-11.196,4.474c-2.338,2.983-3.507,7.756-3.507,14.321v26.978h-4.451
			v-48.875h3.687l0.944,6.7h0.27c1.349-2.428,3.267-4.309,5.755-5.643c2.488-1.333,5.231-2,8.228-2
			c7.704,0,12.65,2.893,14.838,8.678h0.18c1.588-2.788,3.724-4.93,6.407-6.43c2.682-1.498,5.733-2.248,9.15-2.248
			c5.335,0,9.337,1.424,12.005,4.271c2.668,2.848,4.002,7.374,4.002,13.579v31.969H316.093z"/>
		<path class="st0" d="M356.065,406.741c-7.104,0-12.643-2.188-16.614-6.565c-3.972-4.376-5.958-10.506-5.958-18.39
			c0-7.793,1.918-14.035,5.755-18.727c3.837-4.691,9.008-7.037,15.513-7.037c5.755,0,10.296,2.008,13.624,6.025
			c3.327,4.017,4.991,9.473,4.991,16.367v3.597H338.17c0.06,6.715,1.625,11.841,4.698,15.378c3.072,3.538,7.471,5.306,13.197,5.306
			c2.788,0,5.238-0.195,7.352-0.585c2.113-0.389,4.789-1.229,8.026-2.518v4.047c-2.758,1.199-5.305,2.016-7.644,2.451
			C361.461,406.523,358.882,406.741,356.065,406.741z M354.761,359.979c-4.707,0-8.483,1.551-11.331,4.654
			c-2.848,3.103-4.512,7.576-4.991,13.421h30.216c0-5.665-1.229-10.094-3.687-13.286
			C362.51,361.575,359.108,359.979,354.761,359.979z"/>
		<path class="st0" d="M471.846,405.841v-32.059c0-4.766-0.929-8.243-2.788-10.432c-1.859-2.187-4.706-3.282-8.543-3.282
			c-5.006,0-8.708,1.379-11.106,4.137c-2.399,2.758-3.597,7.089-3.597,12.994v28.642h-4.541v-33.408
			c0-8.243-3.777-12.365-11.331-12.365c-5.126,0-8.858,1.492-11.196,4.474c-2.338,2.983-3.507,7.756-3.507,14.321v26.978h-4.451
			v-48.875h3.687l0.944,6.7h0.27c1.349-2.428,3.267-4.309,5.755-5.643c2.488-1.333,5.231-2,8.228-2
			c7.704,0,12.65,2.893,14.838,8.678h0.18c1.588-2.788,3.724-4.93,6.407-6.43c2.682-1.498,5.733-2.248,9.15-2.248
			c5.335,0,9.337,1.424,12.005,4.271c2.668,2.848,4.002,7.374,4.002,13.579v31.969H471.846z"/>
		<path class="st0" d="M521.755,405.841l-1.124-7.734h-0.36c-2.458,3.148-4.984,5.373-7.577,6.677
			c-2.593,1.304-5.658,1.956-9.195,1.956c-4.797,0-8.529-1.229-11.196-3.687c-2.668-2.458-4.001-5.86-4.001-10.207
			c0-4.766,1.985-8.468,5.957-11.106c3.972-2.637,9.72-4.031,17.244-4.181l9.307-0.27v-3.237c0-4.646-0.944-8.153-2.833-10.522
			c-1.888-2.367-4.931-3.552-9.127-3.552c-4.527,0-9.218,1.259-14.074,3.777l-1.664-3.867c5.365-2.518,10.671-3.777,15.917-3.777
			c5.365,0,9.375,1.394,12.028,4.181s3.979,7.135,3.979,13.039v32.509H521.755z M503.77,402.694c5.216,0,9.33-1.491,12.342-4.474
			c3.012-2.982,4.519-7.127,4.519-12.432v-4.811l-8.543,0.36c-6.865,0.33-11.758,1.401-14.681,3.215
			c-2.923,1.814-4.384,4.639-4.384,8.475c0,3.057,0.936,5.434,2.81,7.127C497.707,401.847,500.353,402.694,503.77,402.694z"/>
		<path class="st0" d="M560.378,406.741c-6.984,0-12.455-2.203-16.411-6.609c-3.957-4.407-5.935-10.551-5.935-18.435
			c0-8.094,2.053-14.395,6.16-18.907c4.107-4.511,9.727-6.767,16.861-6.767c4.227,0,8.273,0.735,12.14,2.203l-1.214,3.957
			c-4.227-1.408-7.899-2.113-11.016-2.113c-5.996,0-10.537,1.851-13.624,5.553c-3.088,3.702-4.631,9.031-4.631,15.985
			c0,6.595,1.543,11.758,4.631,15.49c3.087,3.732,7.404,5.598,12.95,5.598c4.436,0,8.558-0.794,12.365-2.383v4.137
			C569.536,405.976,565.444,406.741,560.378,406.741z"/>
		<path class="st0" d="M618.696,405.841v-31.699c0-4.916-1.034-8.49-3.102-10.724c-2.068-2.233-5.276-3.35-9.622-3.35
			c-5.845,0-10.124,1.477-12.837,4.429c-2.713,2.953-4.069,7.741-4.069,14.366v26.978h-4.451v-69.963h4.451v22.257l-0.225,6.25
			h0.314c1.828-2.937,4.137-5.065,6.924-6.385c2.788-1.318,6.25-1.978,10.387-1.978c11.091,0,16.637,5.95,16.637,17.85v31.969
			H618.696z"/>
		<path class="st0" d="M638.3,343.387c0-2.877,0.944-4.316,2.833-4.316c0.929,0,1.656,0.375,2.18,1.124
			c0.524,0.75,0.787,1.814,0.787,3.192c0,1.349-0.263,2.414-0.787,3.192c-0.525,0.78-1.252,1.169-2.18,1.169
			C639.245,347.748,638.3,346.295,638.3,343.387z M643.381,405.841h-4.451v-48.875h4.451V405.841z"/>
		<path class="st0" d="M693.831,405.841v-31.699c0-4.916-1.035-8.49-3.103-10.724c-2.068-2.233-5.276-3.35-9.622-3.35
			c-5.845,0-10.125,1.477-12.837,4.429c-2.713,2.953-4.069,7.741-4.069,14.366v26.978h-4.451v-48.875h3.777l0.854,6.7h0.27
			c3.177-5.096,8.828-7.644,16.952-7.644c11.09,0,16.635,5.95,16.635,17.85v31.969H693.831z"/>
		<path class="st0" d="M733.802,406.741c-7.104,0-12.643-2.188-16.614-6.565c-3.972-4.376-5.957-10.506-5.957-18.39
			c0-7.793,1.918-14.035,5.755-18.727c3.836-4.691,9.008-7.037,15.513-7.037c5.755,0,10.296,2.008,13.624,6.025
			c3.327,4.017,4.991,9.473,4.991,16.367v3.597h-35.206c0.06,6.715,1.626,11.841,4.699,15.378c3.072,3.538,7.471,5.306,13.196,5.306
			c2.788,0,5.239-0.195,7.352-0.585c2.113-0.389,4.789-1.229,8.026-2.518v4.047c-2.758,1.199-5.305,2.016-7.644,2.451
			C739.198,406.523,736.619,406.741,733.802,406.741z M732.498,359.979c-4.706,0-8.483,1.551-11.331,4.654
			c-2.848,3.103-4.512,7.576-4.991,13.421h30.216c0-5.665-1.229-10.094-3.686-13.286
			C740.247,361.575,736.845,359.979,732.498,359.979z"/>
		<path class="st0" d="M806.418,356.022c3.537,0,6.594,0.645,9.172,1.933c2.578,1.29,4.886,3.492,6.924,6.61h0.27
			c-0.18-3.777-0.27-7.479-0.27-11.106v-17.581h4.407v69.963h-2.923l-1.124-7.464h-0.36c-3.717,5.576-9.053,8.363-16.007,8.363
			c-6.745,0-11.901-2.098-15.468-6.295c-3.567-4.196-5.35-10.311-5.35-18.345c0-8.453,1.768-14.912,5.305-19.379
			C794.533,358.255,799.673,356.022,806.418,356.022z M806.418,360.069c-5.336,0-9.345,1.873-12.027,5.62
			c-2.683,3.747-4.025,9.188-4.025,16.322c0,13.849,5.381,20.773,16.142,20.773c5.515,0,9.561-1.603,12.14-4.811
			c2.578-3.207,3.867-8.498,3.867-15.872v-0.764c0-7.554-1.267-12.987-3.8-16.299C816.182,361.725,812.084,360.069,806.418,360.069z
			"/>
		<path class="st0" d="M873.009,405.841l-1.124-7.734h-0.36c-2.458,3.148-4.984,5.373-7.576,6.677
			c-2.593,1.304-5.659,1.956-9.195,1.956c-4.796,0-8.528-1.229-11.195-3.687c-2.669-2.458-4.002-5.86-4.002-10.207
			c0-4.766,1.985-8.468,5.957-11.106c3.972-2.637,9.719-4.031,17.244-4.181l9.307-0.27v-3.237c0-4.646-0.944-8.153-2.832-10.522
			c-1.889-2.367-4.931-3.552-9.128-3.552c-4.527,0-9.218,1.259-14.074,3.777l-1.664-3.867c5.366-2.518,10.671-3.777,15.917-3.777
			c5.366,0,9.375,1.394,12.027,4.181c2.654,2.788,3.98,7.135,3.98,13.039v32.509H873.009z M855.023,402.694
			c5.216,0,9.33-1.491,12.343-4.474c3.012-2.982,4.519-7.127,4.519-12.432v-4.811l-8.543,0.36c-6.864,0.33-11.758,1.401-14.68,3.215
			c-2.923,1.814-4.384,4.639-4.384,8.475c0,3.057,0.937,5.434,2.81,7.127C848.961,401.847,851.607,402.694,855.023,402.694z"/>
		<path class="st0" d="M905.023,402.784c2.817,0,5.276-0.24,7.374-0.719v3.597c-2.158,0.72-4.647,1.079-7.464,1.079
			c-4.316,0-7.502-1.154-9.554-3.462c-2.054-2.308-3.08-5.935-3.08-10.881v-31.564h-7.239v-2.608l7.239-2.023l2.249-11.061h2.293
			v11.825h14.343v3.867H896.84v30.935c0,3.747,0.659,6.52,1.978,8.318C900.137,401.885,902.205,402.784,905.023,402.784z"/>
		<path class="st0" d="M952.64,405.841l-1.124-7.734h-0.36c-2.458,3.148-4.984,5.373-7.576,6.677
			c-2.593,1.304-5.659,1.956-9.195,1.956c-4.796,0-8.528-1.229-11.195-3.687c-2.669-2.458-4.002-5.86-4.002-10.207
			c0-4.766,1.985-8.468,5.957-11.106c3.972-2.637,9.719-4.031,17.244-4.181l9.307-0.27v-3.237c0-4.646-0.944-8.153-2.832-10.522
			c-1.889-2.367-4.931-3.552-9.128-3.552c-4.527,0-9.218,1.259-14.074,3.777l-1.664-3.867c5.366-2.518,10.671-3.777,15.917-3.777
			c5.366,0,9.375,1.394,12.027,4.181c2.654,2.788,3.98,7.135,3.98,13.039v32.509H952.64z M934.654,402.694
			c5.216,0,9.33-1.491,12.343-4.474c3.012-2.982,4.519-7.127,4.519-12.432v-4.811l-8.543,0.36c-6.864,0.33-11.758,1.401-14.68,3.215
			c-2.923,1.814-4.384,4.639-4.384,8.475c0,3.057,0.937,5.434,2.81,7.127C928.592,401.847,931.238,402.694,934.654,402.694z"/>
		<path class="st0" d="M1025.346,405.841l-1.124-7.734h-0.36c-2.458,3.148-4.984,5.373-7.576,6.677
			c-2.593,1.304-5.659,1.956-9.195,1.956c-4.796,0-8.528-1.229-11.195-3.687c-2.669-2.458-4.002-5.86-4.002-10.207
			c0-4.766,1.985-8.468,5.957-11.106c3.972-2.637,9.719-4.031,17.244-4.181l9.307-0.27v-3.237c0-4.646-0.944-8.153-2.832-10.522
			c-1.889-2.367-4.931-3.552-9.128-3.552c-4.527,0-9.218,1.259-14.074,3.777l-1.664-3.867c5.366-2.518,10.671-3.777,15.917-3.777
			c5.366,0,9.375,1.394,12.027,4.181c2.654,2.788,3.98,7.135,3.98,13.039v32.509H1025.346z M1007.36,402.694
			c5.216,0,9.33-1.491,12.343-4.474c3.012-2.982,4.519-7.127,4.519-12.432v-4.811l-8.543,0.36c-6.864,0.33-11.758,1.401-14.68,3.215
			c-2.923,1.814-4.384,4.639-4.384,8.475c0,3.057,0.936,5.434,2.81,7.127C1001.298,401.847,1003.943,402.694,1007.36,402.694z"/>
		<path class="st0" d="M1078.537,405.841v-31.699c0-4.916-1.035-8.49-3.103-10.724c-2.068-2.233-5.276-3.35-9.622-3.35
			c-5.845,0-10.125,1.477-12.837,4.429c-2.713,2.953-4.069,7.741-4.069,14.366v26.978h-4.451v-48.875h3.777l0.854,6.7h0.27
			c3.177-5.096,8.828-7.644,16.952-7.644c11.09,0,16.635,5.95,16.635,17.85v31.969H1078.537z"/>
		<path class="st0" d="M1128.446,405.841l-1.124-7.734h-0.36c-2.458,3.148-4.984,5.373-7.576,6.677
			c-2.593,1.304-5.659,1.956-9.195,1.956c-4.796,0-8.528-1.229-11.195-3.687c-2.669-2.458-4.002-5.86-4.002-10.207
			c0-4.766,1.985-8.468,5.957-11.106c3.972-2.637,9.719-4.031,17.244-4.181l9.307-0.27v-3.237c0-4.646-0.944-8.153-2.832-10.522
			c-1.889-2.367-4.932-3.552-9.128-3.552c-4.527,0-9.218,1.259-14.074,3.777l-1.664-3.867c5.366-2.518,10.671-3.777,15.917-3.777
			c5.366,0,9.375,1.394,12.027,4.181c2.654,2.788,3.98,7.135,3.98,13.039v32.509H1128.446z M1110.461,402.694
			c5.216,0,9.33-1.491,12.343-4.474c3.012-2.982,4.519-7.127,4.519-12.432v-4.811l-8.543,0.36c-6.864,0.33-11.758,1.401-14.68,3.215
			c-2.922,1.814-4.384,4.639-4.384,8.475c0,3.057,0.937,5.434,2.81,7.127C1104.398,401.847,1107.044,402.694,1110.461,402.694z"/>
		<path class="st0" d="M1152.007,405.841h-4.451v-69.963h4.451V405.841z"/>
		<path class="st0" d="M1160.191,356.966h4.586l10.342,27.428c3.147,8.423,5.14,14.104,5.98,17.041h0.27
			c1.259-3.866,3.311-9.637,6.16-17.311l10.342-27.158h4.586l-21.897,56.789c-1.769,4.616-3.253,7.734-4.451,9.352
			c-1.199,1.618-2.601,2.833-4.204,3.642c-1.604,0.809-3.546,1.214-5.823,1.214c-1.708,0-3.612-0.315-5.71-0.944v-3.866
			c1.738,0.479,3.612,0.719,5.621,0.719c1.529,0,2.878-0.36,4.047-1.079c1.169-0.719,2.226-1.836,3.17-3.35
			c0.944-1.514,2.039-3.912,3.283-7.194c1.244-3.282,2.046-5.418,2.406-6.407L1160.191,356.966z"/>
		<path class="st0" d="M1240.946,393.117c0,4.377-1.664,7.741-4.991,10.094c-3.327,2.354-8.049,3.53-14.164,3.53
			c-6.535,0-11.72-1.004-15.557-3.012v-4.811c4.916,2.458,10.102,3.687,15.557,3.687c4.826,0,8.491-0.802,10.994-2.405
			s3.755-3.739,3.755-6.408c0-2.457-0.997-4.526-2.99-6.205c-1.994-1.679-5.269-3.327-9.825-4.946
			c-4.886-1.768-8.318-3.289-10.296-4.563c-1.978-1.274-3.47-2.713-4.474-4.317c-1.004-1.603-1.506-3.559-1.506-5.867
			c0-3.657,1.536-6.549,4.609-8.678c3.072-2.128,7.366-3.192,12.882-3.192c5.276,0,10.281,0.989,15.017,2.967l-1.664,4.047
			c-4.796-1.979-9.248-2.968-13.354-2.968c-3.987,0-7.149,0.66-9.487,1.978c-2.338,1.319-3.508,3.148-3.508,5.486
			c0,2.548,0.907,4.586,2.721,6.115c1.812,1.529,5.357,3.237,10.634,5.126c4.406,1.589,7.613,3.02,9.622,4.294
			c2.008,1.274,3.514,2.72,4.519,4.339C1240.443,389.025,1240.946,390.929,1240.946,393.117z"/>
		<path class="st0" d="M1252.905,343.387c0-2.877,0.944-4.316,2.833-4.316c0.929,0,1.656,0.375,2.181,1.124
			c0.524,0.75,0.787,1.814,0.787,3.192c0,1.349-0.263,2.414-0.787,3.192c-0.525,0.78-1.252,1.169-2.181,1.169
			C1253.849,347.748,1252.905,346.295,1252.905,343.387z M1257.986,405.841h-4.451v-48.875h4.451V405.841z"/>
		<path class="st0" d="M1304.658,393.117c0,4.377-1.664,7.741-4.991,10.094c-3.327,2.354-8.049,3.53-14.164,3.53
			c-6.535,0-11.72-1.004-15.557-3.012v-4.811c4.916,2.458,10.102,3.687,15.557,3.687c4.826,0,8.491-0.802,10.994-2.405
			s3.755-3.739,3.755-6.408c0-2.457-0.997-4.526-2.99-6.205c-1.994-1.679-5.269-3.327-9.825-4.946
			c-4.886-1.768-8.318-3.289-10.296-4.563c-1.978-1.274-3.47-2.713-4.474-4.317c-1.004-1.603-1.506-3.559-1.506-5.867
			c0-3.657,1.536-6.549,4.609-8.678c3.072-2.128,7.366-3.192,12.882-3.192c5.276,0,10.281,0.989,15.017,2.967l-1.664,4.047
			c-4.796-1.979-9.248-2.968-13.354-2.968c-3.987,0-7.149,0.66-9.487,1.978c-2.338,1.319-3.508,3.148-3.508,5.486
			c0,2.548,0.907,4.586,2.721,6.115c1.812,1.529,5.357,3.237,10.634,5.126c4.406,1.589,7.613,3.02,9.622,4.294
			c2.008,1.274,3.514,2.72,4.519,4.339C1304.155,389.025,1304.658,390.929,1304.658,393.117z"/>
	</g>
</g>
</svg>
